<svg xmlns="http://www.w3.org/2000/svg" width="201" height="888.072" viewBox="0 0 201 888.072">
  <g id="Logo" transform="translate(2 0.217)">
    <text id="RØRDAL" transform="translate(50 84.855) rotate(90)" fill="#fff" font-size="130" font-family="TitilliumWeb-Black, Titillium Web" font-weight="800" letter-spacing="0.05em"><tspan x="0" y="0">RØRDAL</tspan></text>
    <g id="Shoe" transform="translate(-20.484 -102.691)">
      <path id="Path_4" data-name="Path 4" d="M91.942,103.524c-3.163-.215-5.133-.132-6.318,3.29l-1.053-.395-5,4.541a2.492,2.492,0,0,0,.527,2.3,2.052,2.052,0,0,0-.611,1.514,1.694,1.694,0,0,0-1.5.46,2.952,2.952,0,0,0-.79,1.448,2.958,2.958,0,0,0-1.645.971,3.483,3.483,0,0,0-.888,1.8,3.64,3.64,0,0,0-2.3,2.789,3.842,3.842,0,0,0-1.407,1.432,6.012,6.012,0,0,0-.592,1.974,3.56,3.56,0,0,0-1.506,1.752,9.371,9.371,0,0,0-.592,2.394,12.929,12.929,0,0,0-2.073-.123,3.683,3.683,0,0,0-2.418,2,3.889,3.889,0,0,0,0,1.506s-1.481.3-2,.37-2.345,1.555-2.369,2.271a6.745,6.745,0,0,0,.148,1.481s-1.111.247-1.654.345a1.025,1.025,0,0,0-.814.765,4.9,4.9,0,0,1-.74,2,5.428,5.428,0,0,1-1.752,1.111c-.419.123-.518.765-.592.963s-.839,2.887.345,3.628a2.815,2.815,0,0,0-.469,2.1c.272,1.086,4.755,7.174,14.43,14.676s19.613,12.571,22.574,10.859c0,0-.132.527-.193.761s-.247.74.3,1,17.289,8.918,17.568,9.017.329-.181.757-.527l2.451,1.366s-.1.461-.148.74.115.263.428.428,11.879,6.828,12.373,7.059.888.1,1.382-.411a1.961,1.961,0,0,1,1.851-.839,1.226,1.226,0,0,1,.987,1.308c0,.568-.1.913-.124,1.341-.023.406-.312.872.362,1.168s16.569,6.449,19.53,7.363,4.245.592,4.911.173,1.184.666,1.7.74,4.615.641,11.723-1.16,13.623-2.986,16.955-9.255a46.389,46.389,0,0,0,2.287-6.779c.3-1.645-.395-2.073-.395-2.073s.362-3.718-1.086-4.9c0,0-.856-4.048-3.093-5.693s-1.744-1.251-4.969-1.612-9.082-1.382-9.872-1.514a7.555,7.555,0,0,0-2.7-2.271c-1.547-.658-2.007-1.119-3.357-1.152a3.376,3.376,0,0,0-.855-2.073,29.73,29.73,0,0,0-.592-4.344c-.362-1.119-1.185-2.83-2.172-3.159a10,10,0,0,0-.888-3.06,21.745,21.745,0,0,1-1.415-2.238,6.261,6.261,0,0,0-1.053-2.04c-.362-.329-.724-1.941-1.382-3.323s-1.645-2.929-1.678-4.738a4.583,4.583,0,0,0-1.283-3.061,5.382,5.382,0,0,1-.559-2.3s-1.81-2.435-2.139-2.962-.2-1.382-.592-1.974-.658-1.382-1.448-1.185c0,0-1.185-1.316-2.238-2.435s.592-2.962-5.989-2.9-15.137,2.106-20.073,1.777-6.647.066-12.768-11.978S92.932,103.591,91.942,103.524Z" transform="translate(0 -0.498)" fill="#fff" stroke="#2e2014" stroke-miterlimit="10" stroke-width="1"/>
      <path id="Path_5" data-name="Path 5" d="M241.318,174.213a14.764,14.764,0,0,0-1.563-1.062,4.6,4.6,0,0,0-1.8-.37c-1.278-.1-2.554-.265-3.821-.447-2.536-.364-5.062-.786-7.583-1.215l-.069-.012-.045-.059a8.258,8.258,0,0,0-1.509-1.539,5.489,5.489,0,0,0-.9-.573,7.95,7.95,0,0,0-1.006-.4c-.693-.235-1.4-.376-2.131-.61a2.2,2.2,0,0,1-.279-.119.96.96,0,0,1-.147-.1c-.025-.025-.05-.052-.073-.08a.757.757,0,0,1-.044-.067,5.153,5.153,0,0,1-.264-.51c-.157-.341-.3-.686-.421-1.041a4.956,4.956,0,0,1-.164-.549c-.042-.2-.058-.381-.079-.568l-.1-1.1a21.827,21.827,0,0,0-.283-2.174,5.863,5.863,0,0,0-.324-1.025,8.867,8.867,0,0,0-.461-.981,5.5,5.5,0,0,0-.6-.888,2.012,2.012,0,0,0-.795-.609h0l-.1-.044-.016-.121c-.029-.224-.092-.517-.152-.772s-.132-.525-.212-.783a6.552,6.552,0,0,0-.617-1.46,15.084,15.084,0,0,0-.939-1.325,3.506,3.506,0,0,1-.46-.771c-.1-.282-.186-.5-.3-.752s-.23-.48-.36-.7c-.065-.112-.134-.22-.2-.319-.036-.047-.071-.095-.107-.133a.58.58,0,0,0-.05-.051l-.1-.1a2.032,2.032,0,0,1-.259-.433c-.064-.136-.119-.268-.172-.4l-.3-.778c-.193-.512-.383-1.017-.606-1.5s-.488-.96-.741-1.455a9.184,9.184,0,0,1-1.107-3.259l-.029-.439c-.009-.125-.011-.252-.03-.374a3.426,3.426,0,0,0-.154-.712,3.749,3.749,0,0,0-.751-1.26c-.087-.111-.179-.221-.272-.361a1.79,1.79,0,0,1-.239-.5,4.614,4.614,0,0,1-.146-.914,2.94,2.94,0,0,0-.121-.689,1.022,1.022,0,0,0-.122-.247l-.226-.321-.978-1.311-.5-.664-.248-.341a3.917,3.917,0,0,1-.263-.4,3.126,3.126,0,0,1-.278-.96,3.649,3.649,0,0,0-.158-.693,1.3,1.3,0,0,0-.055-.124c-.025-.039-.032-.057-.08-.126l-.224-.328a1.671,1.671,0,0,0-.412-.446.55.55,0,0,0-.184-.079.732.732,0,0,0-.1-.011l-.143-.013a.886.886,0,0,1-.2-.038,1.509,1.509,0,0,1-.576-.33,3.284,3.284,0,0,1-.347-.37c-.384-.482-.656-.933-.98-1.34-.079-.1-.16-.2-.242-.3-.04-.049-.084-.094-.126-.141l-.063-.07-.086-.106a2.512,2.512,0,0,1-.473-.935c-.171-.587-.264-.829-.609-1.047a3.548,3.548,0,0,0-1.322-.437,11.767,11.767,0,0,0-1.563-.155,45.989,45.989,0,0,0-6.489.291c-2.173.224-4.347.528-6.531.808s-4.38.55-6.618.629c-.562.009-1.124.017-1.693-.016s-1.1-.065-1.659-.105a10,10,0,0,1-3.395-.715,8.116,8.116,0,0,1-2.748-2.162,8.318,8.318,0,0,1-.542-.658c-.17-.225-.356-.442-.513-.674-.31-.466-.652-.916-.934-1.394-1.187-1.886-2.229-3.837-3.221-5.806-.5-.99-1.006-1.945-1.51-2.917-.542-.946-1.063-1.906-1.657-2.818a28.848,28.848,0,0,0-3.983-5.12,11.022,11.022,0,0,0-2.567-1.884,5.3,5.3,0,0,0-1.474-.475c-.511-.062-1.081-.092-1.614-.113a5.214,5.214,0,0,0-3.041.59,4.965,4.965,0,0,0-1.774,2.551l-.329-.114a7.862,7.862,0,0,1,.687-1.542,4.124,4.124,0,0,1,1.164-1.274,4.068,4.068,0,0,1,1.613-.636,8.787,8.787,0,0,1,1.691-.117c.566.009,1.1.023,1.677.078a5.9,5.9,0,0,1,1.665.49,11.667,11.667,0,0,1,2.78,1.935,27.7,27.7,0,0,1,4.2,5.183c.62.922,1.162,1.888,1.727,2.841.522.972,1.059,1.951,1.564,2.917,1.015,1.942,2.076,3.859,3.258,5.677.283.465.615.886.92,1.332.154.221.331.419.495.63a7.542,7.542,0,0,0,.514.607,7.161,7.161,0,0,0,2.4,1.881,8.98,8.98,0,0,0,3.03.606c.533.035,1.1.078,1.632.1s1.066.018,1.6.007c2.156-.086,4.33-.363,6.5-.652s4.355-.6,6.555-.843c1.1-.114,2.2-.225,3.316-.281a30.378,30.378,0,0,1,3.358-.033,12.868,12.868,0,0,1,1.714.179,4.631,4.631,0,0,1,1.773.626,2.478,2.478,0,0,1,.42.347,2.29,2.29,0,0,1,.325.455,4.208,4.208,0,0,1,.331.881,1.371,1.371,0,0,0,.25.532c.015.018.017.028.041.055l.075.083c.049.056.1.11.148.168.1.113.189.227.277.343.356.457.66.947.958,1.327a1.066,1.066,0,0,0,.338.322c0,.007,0,0,.006,0v0s.042,0,.061,0a1.811,1.811,0,0,1,.3.04,1.711,1.711,0,0,1,.568.247,2.75,2.75,0,0,1,.709.749l.236.355c.03.045.092.145.135.225a2.3,2.3,0,0,1,.111.253,4.583,4.583,0,0,1,.207.911,2.209,2.209,0,0,0,.155.623,3.351,3.351,0,0,0,.186.287l.233.328.483.662c.324.444.654.884.974,1.346l.24.359a2.084,2.084,0,0,1,.231.495,3.9,3.9,0,0,1,.152.933,3.847,3.847,0,0,0,.089.714.763.763,0,0,0,.105.24c.057.091.138.2.218.3a4.718,4.718,0,0,1,.879,1.583,4.365,4.365,0,0,1,.174.9c.019.15.019.3.025.448l.016.383a8.342,8.342,0,0,0,.947,2.966c.235.489.49.977.721,1.5s.413,1.051.586,1.575l.261.773a3.141,3.141,0,0,0,.286.645c.015.015,0,.006.042.05a1.227,1.227,0,0,1,.091.1c.055.065.1.13.144.194.084.128.158.256.227.383.136.256.253.515.361.777s.208.551.281.79a2.965,2.965,0,0,0,.363.653,15.492,15.492,0,0,1,.914,1.4,6.521,6.521,0,0,1,.594,1.6c.069.271.127.544.178.819a7.691,7.691,0,0,1,.119.853l-.119-.165,0,0a2.332,2.332,0,0,1,.949.713,5.8,5.8,0,0,1,.636.946,9.21,9.21,0,0,1,.479,1.02,6.218,6.218,0,0,1,.341,1.083,22.07,22.07,0,0,1,.289,2.213l.1,1.1c.02.179.039.367.072.528a4.816,4.816,0,0,0,.153.511c.121.341.257.68.409,1.01a4.93,4.93,0,0,0,.244.473c.044.1.2.157.364.22.676.218,1.418.368,2.124.608a8.274,8.274,0,0,1,1.051.414,5.844,5.844,0,0,1,.962.609,8.586,8.586,0,0,1,1.58,1.612l-.113-.07c2.523.43,5.045.851,7.575,1.214,1.266.182,2.529.343,3.8.445.319.028.639.053.966.1a2.984,2.984,0,0,1,.963.305,14.9,14.9,0,0,1,1.61,1.092Z" transform="translate(-59.808)" fill="#2e2014"/>
      <path id="Path_6" data-name="Path 6" d="M100.276,181.913s17.626,5.046,30.538,13.821c16.848,11.452,44.358,38.435,57.784,40.147s21.709,1.686,24.746,1.448c0,0-9.346,1.251-24.943-.855-4.345-.587-12.571-2.5-50.479-32.117C134.374,201.584,129.168,194.418,100.276,181.913Z" transform="translate(-30.357 -51.632)" fill="#2e2014"/>
      <path id="Path_7" data-name="Path 7" d="M243.452,232.328s2.731-2.04,15.1-3.093c0,0-8.17-.491-14.452,1.345a1.165,1.165,0,0,0-.668,1.723Z" transform="translate(-123.547 -82.434)" fill="#2e2014"/>
      <path id="Path_8" data-name="Path 8" d="M252.233,250.341s3.069-2.214,17.43-4.065c0,0-9.686.038-16.922,2.326a1.09,1.09,0,0,0-.529,1.715Z" transform="translate(-129.224 -93.579)" fill="#2e2014"/>
      <path id="Path_9" data-name="Path 9" d="M268.079,268.013s2.841-2.5,16.235-4.454c0,0-8.844-.069-15.551,2.381a1.377,1.377,0,0,0-.7,2.044Z" transform="translate(-139.561 -104.843)" fill="#2e2014"/>
      <path id="Path_10" data-name="Path 10" d="M288.475,287.776s2.641-2.375,15.1-4.216c0,0-8.209-.075-14.443,2.238a1.322,1.322,0,0,0-.675,1.951Z" transform="translate(-152.864 -117.878)" fill="#2e2014"/>
      <path id="Path_11" data-name="Path 11" d="M310.682,302.432s1.938-2.55,12.084-5.278c0,0-6.656.5-11.569,3.166a1.453,1.453,0,0,0-.533,2.087Z" transform="translate(-167.314 -126.738)" fill="#2e2014"/>
      <path id="Path_12" data-name="Path 12" d="M332.847,315.988s1.424-2.265,9.741-5.422a29.323,29.323,0,0,0-9.5,3.657,1.182,1.182,0,0,0-.262,1.746Z" transform="translate(-181.74 -135.479)" fill="#2e2014"/>
      <path id="Path_13" data-name="Path 13" d="M269.667,209.882s-15.053,1.161-19.822,1.908c-4.2.658-6.109.066-8.215,3.686,0,0,.461-2.962,3.159-3.554C249.918,210.8,269.667,209.882,269.667,209.882Z" transform="translate(-122.482 -69.86)" fill="#2e2014"/>
      <path id="Path_14" data-name="Path 14" d="M144.952,136.929a2.009,2.009,0,0,1-.532.819,4.108,4.108,0,0,1-.771.592,7.819,7.819,0,0,1-1.772.774,19.03,19.03,0,0,1-1.872.451l-1.88.363a16,16,0,0,0-3.632,1.009,4.6,4.6,0,0,0-1.5,1.044,5.554,5.554,0,0,0-.928,1.583,6.684,6.684,0,0,0-.651,3.617,9.871,9.871,0,0,0,1.3,3.5c.312.548.656,1.082,1,1.621s.684,1.078,1.016,1.623c.662,1.092,1.319,2.186,1.927,3.312l-.077.041c-1.3-2.194-2.773-4.266-4.144-6.436a12.715,12.715,0,0,1-.874-1.728,8.212,8.212,0,0,1-.513-1.885,6.045,6.045,0,0,1,.059-1.964,9.05,9.05,0,0,1,.594-1.859c.062-.15.128-.3.2-.442a3.8,3.8,0,0,1,.222-.437,4.19,4.19,0,0,1,.586-.814,4.977,4.977,0,0,1,1.627-1.12,15.528,15.528,0,0,1,3.731-1l1.886-.318a18.7,18.7,0,0,0,1.857-.4,7.729,7.729,0,0,0,1.753-.687,3.944,3.944,0,0,0,.764-.541,1.93,1.93,0,0,0,.543-.739Z" transform="translate(-50.377 -22.301)" fill="#2e2014"/>
      <path id="Path_15" data-name="Path 15" d="M72.575,202.02a52.77,52.77,0,0,1,8.329,4.146c.667.4,1.318.825,1.975,1.243q.486.322.967.655t.954.673c.632.456,1.263.913,1.875,1.4s1.217.976,1.812,1.482c1.194,1.008,2.335,2.081,3.438,3.16l3.307,3.25,6.589,6.5c4.4,4.321,8.854,8.587,13.451,12.693q3.443,3.085,7.029,6l1.812,1.435c.6.485,1.233.924,1.848,1.388,1.227.936,2.51,1.789,3.778,2.671l-.046.074a86.852,86.852,0,0,1-7.727-5.133c-.633-.446-1.236-.93-1.855-1.4s-1.237-.931-1.837-1.419c-1.2-.978-2.415-1.937-3.59-2.943-4.739-3.981-9.295-8.172-13.756-12.45-2.241-2.129-4.443-4.3-6.649-6.455s-4.4-4.343-6.679-6.351a83.947,83.947,0,0,0-7.253-5.621q-3.781-2.624-7.809-4.923Z" transform="translate(-12.28 -64.736)" fill="#2e2014"/>
      <path id="Path_16" data-name="Path 16" d="M60.952,227.533a27.213,27.213,0,0,1,3.871,2.312,27.644,27.644,0,0,1,3.465,2.9c1.076,1.068,2.025,2.234,2.986,3.388s1.9,2.321,2.883,3.447a30.574,30.574,0,0,0,6.609,5.941c1.258.813,2.522,1.617,3.8,2.388a36.255,36.255,0,0,0,3.919,2.116c1.272.689,2.776.274,4.368.637a3.05,3.05,0,0,1,1.146.515,8.772,8.772,0,0,1,.88.769,9.555,9.555,0,0,0,1.607,1.47c.595.377,1.286.723,1.937,1.08l1.984,1.059,3.977,2.1c2.655,1.394,5.311,2.793,7.985,4.137l.5.246c.169.084.334.161.49.227a2.459,2.459,0,0,0,.984.2,4.581,4.581,0,0,1,1.195.092,2.464,2.464,0,0,1,.592.249,2.341,2.341,0,0,1,.51.4c.591.6.868,1.345,1.307,1.855a1.491,1.491,0,0,0,.346.31c.131.083.317.178.475.266l.987.538,7.9,4.325c.657.366,1.312.728,1.966,1.11.081.046.165.1.249.15l.126.078.093.051a.85.85,0,0,0,.409.091,9.791,9.791,0,0,0,1.074-.146,2.627,2.627,0,0,1,1.245.1,2.43,2.43,0,0,1,.571.29,1.718,1.718,0,0,1,.467.477,4.248,4.248,0,0,1,.441,1.116,1.285,1.285,0,0,0,.488.768,10.4,10.4,0,0,0,.967.49l1.02.464,2.057.908,4.119,1.817a83.251,83.251,0,0,0,8.325,3.349c.708.233,1.422.459,2.139.639a6.323,6.323,0,0,0,2.166.2c.736-.042,1.488-.151,2.26-.137a7.153,7.153,0,0,1,2.254.467,16.126,16.126,0,0,0,2.117.652,5.981,5.981,0,0,0,1.087.016c.372-.015.745-.039,1.118-.066,1.492-.109,2.983-.263,4.468-.451s2.958-.43,4.428-.742c1.47-.293,2.933-.614,4.38-1a32.2,32.2,0,0,0,4.252-1.427,11.6,11.6,0,0,0,3.744-2.4l.064.059a11.707,11.707,0,0,1-3.753,2.47,32.3,32.3,0,0,1-4.258,1.483c-1.447.406-2.913.744-4.381,1.055-1.462.329-2.951.594-4.438.8s-2.981.377-4.481.5c-.375.031-.75.06-1.127.079a6.269,6.269,0,0,1-1.159-.007,15.483,15.483,0,0,1-2.186-.646,6.753,6.753,0,0,0-2.135-.433c-.731-.009-1.469.1-2.229.151a8.083,8.083,0,0,1-1.155,0,6.87,6.87,0,0,1-1.141-.2c-.739-.181-1.459-.4-2.176-.635a83.659,83.659,0,0,1-8.39-3.312l-4.128-1.789-2.066-.9-1.031-.461a10.412,10.412,0,0,1-1.041-.522,1.849,1.849,0,0,1-.726-1.067,3.834,3.834,0,0,0-.379-.97,1.125,1.125,0,0,0-.317-.318,1.837,1.837,0,0,0-.43-.214,2.046,2.046,0,0,0-.977-.069,9.366,9.366,0,0,1-1.154.153,1.451,1.451,0,0,1-.676-.155l-.153-.085-.114-.07c-.075-.046-.151-.093-.233-.139-.643-.372-1.3-.735-1.956-1.1l-7.9-4.306-.989-.537c-.169-.095-.32-.168-.507-.284a2.1,2.1,0,0,1-.491-.433c-.531-.638-.8-1.348-1.279-1.817a1.7,1.7,0,0,0-.376-.292,1.842,1.842,0,0,0-.442-.186,4.109,4.109,0,0,0-1.042-.068,3.116,3.116,0,0,1-1.206-.241c-.19-.08-.365-.162-.531-.245l-.51-.248c-2.691-1.345-5.347-2.737-8.007-4.127l-3.984-2.1L98.106,255.1l-.993-.533c-.329-.18-.667-.356-1-.575a6.046,6.046,0,0,1-.924-.745c-.282-.273-.531-.551-.79-.806a8.1,8.1,0,0,0-.814-.709,2.359,2.359,0,0,0-.892-.4,11.441,11.441,0,0,0-2.17-.188,7.805,7.805,0,0,1-1.169-.12,3.627,3.627,0,0,1-.591-.168c-.183-.068-.361-.142-.538-.218a36.73,36.73,0,0,1-3.986-2.177c-1.286-.784-2.55-1.6-3.807-2.419a24.769,24.769,0,0,1-3.572-2.812,40.58,40.58,0,0,1-3.086-3.314c-1.947-2.3-3.7-4.741-5.733-6.922a29.154,29.154,0,0,0-7.127-5.377Z" transform="translate(-4.704 -81.364)" fill="#2e2014"/>
    </g>
    <text id="_RUN" data-name=" RUN" transform="translate(50 584.855) rotate(90)" fill="none" stroke="#fff" stroke-width="2" font-size="130" font-family="TitilliumWeb-Black, Titillium Web" font-weight="800" letter-spacing="0.05em"><tspan x="0" y="0" xml:space="preserve"> RUN</tspan></text>
  </g>
</svg>
